<?xml version="1.0" encoding="UTF-8" standalone="no"?><svg xmlns="http://www.w3.org/2000/svg" xmlns:xlink="http://www.w3.org/1999/xlink" contentScriptType="application/ecmascript" contentStyleType="text/css" height="797px" preserveAspectRatio="none" style="width:252px;height:797px;background:#FFFFFF;" version="1.1" viewBox="0 0 252 797" width="252px" zoomAndPan="magnify"><defs><filter height="300%" id="f159gdhawkg3zh" width="300%" x="-1" y="-1"><feGaussianBlur result="blurOut" stdDeviation="2.0"/><feColorMatrix in="blurOut" result="blurOut2" type="matrix" values="0 0 0 0 0 0 0 0 0 0 0 0 0 0 0 0 0 0 .4 0"/><feOffset dx="4.0" dy="4.0" in="blurOut2" result="blurOut3"/><feBlend in="SourceGraphic" in2="blurOut3" mode="normal"/></filter></defs><g><ellipse cx="123" cy="20" fill="#000000" filter="url(#f159gdhawkg3zh)" rx="10" ry="10" style="stroke:none;stroke-width:1.0;"/><rect fill="#FFFFFF" filter="url(#f159gdhawkg3zh)" height="178.1406" style="stroke:#000000;stroke-width:2.0;" width="221" x="12.5" y="40"/><path d="M68.5,40 L68.5,49.2969 L58.5,59.2969 L12.5,59.2969 " fill="none" style="stroke:#000000;stroke-width:2.0;"/><text fill="#000000" font-family="sans-serif" font-size="14" lengthAdjust="spacing" textLength="46" x="15.5" y="53.9951">factory</text><rect fill="#FEFECE" filter="url(#f159gdhawkg3zh)" height="75.875" rx="12.5" ry="12.5" style="stroke:#A80036;stroke-width:1.5;" width="150" x="48" y="76.2969"/><text fill="#000000" font-family="sans-serif" font-size="12" lengthAdjust="spacing" textLength="98" x="58" y="97.4355">sign_check: yes</text><text fill="#000000" font-family="sans-serif" font-size="12" lengthAdjust="spacing" textLength="70" x="58" y="111.4043">backup: no</text><text fill="#000000" font-family="sans-serif" font-size="12" lengthAdjust="spacing" textLength="112" x="58" y="125.373">version_check: no</text><text fill="#000000" font-family="sans-serif" font-size="12" lengthAdjust="spacing" textLength="130" x="58" y="139.3418">checksum_check: no</text><rect fill="#FEFECE" filter="url(#f159gdhawkg3zh)" height="33.9688" rx="12.5" ry="12.5" style="stroke:#A80036;stroke-width:1.5;" width="201" x="22.5" y="172.1719"/><text fill="#000000" font-family="sans-serif" font-size="12" lengthAdjust="spacing" textLength="181" x="32.5" y="193.3105">generic update 2:/factory.tar</text><ellipse cx="123" cy="249.1406" fill="#FFFFFF" filter="url(#f159gdhawkg3zh)" rx="11" ry="11" style="stroke:#000000;stroke-width:1.0;"/><ellipse cx="123" cy="249.1406" fill="#000000" rx="6" ry="6" style="stroke:#7F7F7F;stroke-width:1.0;"/><ellipse cx="123" cy="280.1406" fill="#000000" filter="url(#f159gdhawkg3zh)" rx="10" ry="10" style="stroke:none;stroke-width:1.0;"/><rect fill="#FFFFFF" filter="url(#f159gdhawkg3zh)" height="178.1406" style="stroke:#000000;stroke-width:2.0;" width="223" x="11.5" y="300.1406"/><path d="M70.5,300.1406 L70.5,309.4375 L60.5,319.4375 L11.5,319.4375 " fill="none" style="stroke:#000000;stroke-width:2.0;"/><text fill="#000000" font-family="sans-serif" font-size="14" lengthAdjust="spacing" textLength="49" x="14.5" y="314.1357">update</text><rect fill="#FEFECE" filter="url(#f159gdhawkg3zh)" height="75.875" rx="12.5" ry="12.5" style="stroke:#A80036;stroke-width:1.5;" width="155" x="45.5" y="336.4375"/><text fill="#000000" font-family="sans-serif" font-size="12" lengthAdjust="spacing" textLength="98" x="55.5" y="357.5762">sign_check: yes</text><text fill="#000000" font-family="sans-serif" font-size="12" lengthAdjust="spacing" textLength="75" x="55.5" y="371.5449">backup: yes</text><text fill="#000000" font-family="sans-serif" font-size="12" lengthAdjust="spacing" textLength="117" x="55.5" y="385.5137">version_check: yes</text><text fill="#000000" font-family="sans-serif" font-size="12" lengthAdjust="spacing" textLength="135" x="55.5" y="399.4824">checksum_check: yes</text><rect fill="#FEFECE" filter="url(#f159gdhawkg3zh)" height="33.9688" rx="12.5" ry="12.5" style="stroke:#A80036;stroke-width:1.5;" width="203" x="21.5" y="432.3125"/><text fill="#000000" font-family="sans-serif" font-size="12" lengthAdjust="spacing" textLength="183" x="31.5" y="453.4512">generic update 3:/update.tar</text><ellipse cx="123" cy="509.2813" fill="#FFFFFF" filter="url(#f159gdhawkg3zh)" rx="11" ry="11" style="stroke:#000000;stroke-width:1.0;"/><ellipse cx="123" cy="509.2813" fill="#000000" rx="6" ry="6" style="stroke:#7F7F7F;stroke-width:1.0;"/><ellipse cx="123" cy="540.2813" fill="#000000" filter="url(#f159gdhawkg3zh)" rx="10" ry="10" style="stroke:none;stroke-width:1.0;"/><rect fill="#FFFFFF" filter="url(#f159gdhawkg3zh)" height="178.1406" style="stroke:#000000;stroke-width:2.0;" width="224" x="11" y="560.2813"/><path d="M71,560.2813 L71,569.5781 L61,579.5781 L11,579.5781 " fill="none" style="stroke:#000000;stroke-width:2.0;"/><text fill="#000000" font-family="sans-serif" font-size="14" lengthAdjust="spacing" textLength="50" x="14" y="574.2764">restore</text><rect fill="#FEFECE" filter="url(#f159gdhawkg3zh)" height="75.875" rx="12.5" ry="12.5" style="stroke:#A80036;stroke-width:1.5;" width="155" x="45.5" y="596.5781"/><text fill="#000000" font-family="sans-serif" font-size="12" lengthAdjust="spacing" textLength="93" x="55.5" y="617.7168">sign_check: no</text><text fill="#000000" font-family="sans-serif" font-size="12" lengthAdjust="spacing" textLength="70" x="55.5" y="631.6855">backup: no</text><text fill="#000000" font-family="sans-serif" font-size="12" lengthAdjust="spacing" textLength="112" x="55.5" y="645.6543">version_check: no</text><text fill="#000000" font-family="sans-serif" font-size="12" lengthAdjust="spacing" textLength="135" x="55.5" y="659.623">checksum_check: yes</text><rect fill="#FEFECE" filter="url(#f159gdhawkg3zh)" height="33.9688" rx="12.5" ry="12.5" style="stroke:#A80036;stroke-width:1.5;" width="204" x="21" y="692.4531"/><text fill="#000000" font-family="sans-serif" font-size="12" lengthAdjust="spacing" textLength="184" x="31" y="713.5918">generic update 2:/backup.tar</text><ellipse cx="123" cy="769.4219" fill="#FFFFFF" filter="url(#f159gdhawkg3zh)" rx="11" ry="11" style="stroke:#000000;stroke-width:1.0;"/><ellipse cx="123" cy="769.4219" fill="#000000" rx="6" ry="6" style="stroke:#7F7F7F;stroke-width:1.0;"/><line style="stroke:#A80036;stroke-width:1.5;" x1="123" x2="123" y1="152.1719" y2="172.1719"/><polygon fill="#A80036" points="119,162.1719,123,172.1719,127,162.1719,123,166.1719" style="stroke:#A80036;stroke-width:1.0;"/><line style="stroke:#A80036;stroke-width:1.5;" x1="123" x2="123" y1="30" y2="76.2969"/><polygon fill="#A80036" points="119,66.2969,123,76.2969,127,66.2969,123,70.2969" style="stroke:#A80036;stroke-width:1.0;"/><line style="stroke:#A80036;stroke-width:1.5;" x1="123" x2="123" y1="206.1406" y2="238.1406"/><polygon fill="#A80036" points="119,228.1406,123,238.1406,127,228.1406,123,232.1406" style="stroke:#A80036;stroke-width:1.0;"/><line style="stroke:#A80036;stroke-width:1.5;" x1="123" x2="123" y1="412.3125" y2="432.3125"/><polygon fill="#A80036" points="119,422.3125,123,432.3125,127,422.3125,123,426.3125" style="stroke:#A80036;stroke-width:1.0;"/><line style="stroke:#A80036;stroke-width:1.5;" x1="123" x2="123" y1="290.1406" y2="336.4375"/><polygon fill="#A80036" points="119,326.4375,123,336.4375,127,326.4375,123,330.4375" style="stroke:#A80036;stroke-width:1.0;"/><line style="stroke:#A80036;stroke-width:1.5;" x1="123" x2="123" y1="466.2813" y2="498.2813"/><polygon fill="#A80036" points="119,488.2813,123,498.2813,127,488.2813,123,492.2813" style="stroke:#A80036;stroke-width:1.0;"/><line style="stroke:#A80036;stroke-width:1.5;" x1="123" x2="123" y1="672.4531" y2="692.4531"/><polygon fill="#A80036" points="119,682.4531,123,692.4531,127,682.4531,123,686.4531" style="stroke:#A80036;stroke-width:1.0;"/><line style="stroke:#A80036;stroke-width:1.5;" x1="123" x2="123" y1="550.2813" y2="596.5781"/><polygon fill="#A80036" points="119,586.5781,123,596.5781,127,586.5781,123,590.5781" style="stroke:#A80036;stroke-width:1.0;"/><line style="stroke:#A80036;stroke-width:1.5;" x1="123" x2="123" y1="726.4219" y2="758.4219"/><polygon fill="#A80036" points="119,748.4219,123,758.4219,127,748.4219,123,752.4219" style="stroke:#A80036;stroke-width:1.0;"/><!--MD5=[c32e2a9ecea5e2d85b932669f1591529]
@startuml

start
partition "factory" {

    :sign_check: yes
    backup: no
    version_check: no
    checksum_check: no;

    :generic update 2:/factory.tar;
}
stop

start
partition "update" {
    :sign_check: yes
    backup: yes
    version_check: yes
    checksum_check: yes;

    :generic update 3:/update.tar;
}
stop

start
partition "restore" {
    :sign_check: no
    backup: no
    version_check: no
    checksum_check: yes;

    :generic update 2:/backup.tar;
}
stop

@enduml

PlantUML version 1.2021.8(Sat Jun 26 10:20:59 CEST 2021)
(GPL source distribution)
Java Runtime: OpenJDK Runtime Environment
JVM: OpenJDK 64-Bit Server VM
Default Encoding: UTF-8
Language: en
Country: US
--></g></svg>